<svg width="180" height="39" viewBox="0 0 180 39" fill="none" xmlns="http://www.w3.org/2000/svg">
<path d="M2.22 30V9H15V11.07H4.74V18.45H13.47V20.49H4.74V30H2.22ZM33.9743 30V8.4H36.4943V30H33.9743ZM40.6247 30V8.4H43.1447V30H40.6247ZM54.0551 30.36C52.6551 30.36 51.3951 30.04 50.2751 29.4C49.1551 28.76 48.2651 27.86 47.6051 26.7C46.9651 25.52 46.6451 24.14 46.6451 22.56C46.6451 20.98 46.9751 19.61 47.6351 18.45C48.2951 17.27 49.1851 16.36 50.3051 15.72C51.4451 15.08 52.7151 14.76 54.1151 14.76C55.5151 14.76 56.7751 15.08 57.8951 15.72C59.0151 16.36 59.8951 17.27 60.5351 18.45C61.1951 19.61 61.5251 20.98 61.5251 22.56C61.5251 24.14 61.1951 25.52 60.5351 26.7C59.8751 27.86 58.9751 28.76 57.8351 29.4C56.7151 30.04 55.4551 30.36 54.0551 30.36ZM54.0551 28.2C54.9151 28.2 55.7151 27.99 56.4551 27.57C57.1951 27.15 57.7951 26.52 58.2551 25.68C58.7151 24.84 58.9451 23.8 58.9451 22.56C58.9451 21.32 58.7151 20.28 58.2551 19.44C57.8151 18.6 57.2251 17.97 56.4851 17.55C55.7451 17.13 54.9551 16.92 54.1151 16.92C53.2551 16.92 52.4551 17.13 51.7151 17.55C50.9751 17.97 50.3751 18.6 49.9151 19.44C49.4551 20.28 49.2251 21.32 49.2251 22.56C49.2251 23.8 49.4551 24.84 49.9151 25.68C50.3751 26.52 50.9651 27.15 51.6851 27.57C52.4251 27.99 53.2151 28.2 54.0551 28.2ZM67.4723 30L63.1223 15.12H65.6423L68.7923 26.79L72.2723 15.12H75.1223L78.6323 26.79L81.7523 15.12H84.3023L79.9523 30H77.3723L73.7123 17.73L70.0523 30H67.4723ZM95.179 30V9H101.629C105.329 9 108.049 9.94 109.789 11.82C111.549 13.7 112.429 16.28 112.429 19.56C112.429 22.78 111.549 25.33 109.789 27.21C108.049 29.07 105.329 30 101.629 30H95.179ZM97.699 27.9H101.569C103.609 27.9 105.229 27.57 106.429 26.91C107.649 26.23 108.519 25.27 109.039 24.03C109.559 22.77 109.819 21.28 109.819 19.56C109.819 17.8 109.559 16.29 109.039 15.03C108.519 13.77 107.649 12.8 106.429 12.12C105.229 11.44 103.609 11.1 101.569 11.1H97.699V27.9ZM117.448 11.82C116.948 11.82 116.528 11.66 116.188 11.34C115.868 11 115.708 10.58 115.708 10.08C115.708 9.6 115.868 9.2 116.188 8.88C116.528 8.56 116.948 8.4 117.448 8.4C117.928 8.4 118.338 8.56 118.678 8.88C119.018 9.2 119.188 9.6 119.188 10.08C119.188 10.58 119.018 11 118.678 11.34C118.338 11.66 117.928 11.82 117.448 11.82ZM116.188 30V15.12H118.708V30H116.188ZM128.975 25.32C128.135 25.32 127.365 25.21 126.665 24.99L125.165 26.4C125.385 26.56 125.655 26.7 125.975 26.82C126.315 26.92 126.795 27.02 127.415 27.12C128.035 27.2 128.905 27.29 130.025 27.39C132.025 27.53 133.455 27.99 134.315 28.77C135.175 29.55 135.605 30.57 135.605 31.83C135.605 32.69 135.365 33.51 134.885 34.29C134.425 35.07 133.705 35.71 132.725 36.21C131.765 36.71 130.525 36.96 129.005 36.96C127.665 36.96 126.475 36.78 125.435 36.42C124.395 36.08 123.585 35.55 123.005 34.83C122.425 34.13 122.135 33.24 122.135 32.16C122.135 31.6 122.285 30.99 122.585 30.33C122.885 29.69 123.445 29.08 124.265 28.5C123.825 28.32 123.445 28.13 123.125 27.93C122.825 27.71 122.545 27.47 122.285 27.21V26.52L124.835 24C123.655 23 123.065 21.68 123.065 20.04C123.065 19.06 123.295 18.17 123.755 17.37C124.215 16.57 124.885 15.94 125.765 15.48C126.645 15 127.715 14.76 128.975 14.76C129.835 14.76 130.615 14.88 131.315 15.12H136.805V17.01L134.015 17.13C134.595 17.97 134.885 18.94 134.885 20.04C134.885 21.02 134.645 21.91 134.165 22.71C133.705 23.51 133.035 24.15 132.155 24.63C131.295 25.09 130.235 25.32 128.975 25.32ZM128.975 23.25C130.035 23.25 130.875 22.98 131.495 22.44C132.135 21.88 132.455 21.08 132.455 20.04C132.455 19.02 132.135 18.24 131.495 17.7C130.875 17.14 130.035 16.86 128.975 16.86C127.895 16.86 127.035 17.14 126.395 17.7C125.775 18.24 125.465 19.02 125.465 20.04C125.465 21.08 125.775 21.88 126.395 22.44C127.035 22.98 127.895 23.25 128.975 23.25ZM124.595 31.92C124.595 32.92 125.015 33.66 125.855 34.14C126.695 34.64 127.745 34.89 129.005 34.89C130.245 34.89 131.235 34.62 131.975 34.08C132.735 33.54 133.115 32.82 133.115 31.92C133.115 31.28 132.855 30.72 132.335 30.24C131.815 29.78 130.855 29.51 129.455 29.43C128.355 29.35 127.405 29.25 126.605 29.13C125.785 29.57 125.245 30.04 124.985 30.54C124.725 31.06 124.595 31.52 124.595 31.92ZM141.178 11.82C140.678 11.82 140.258 11.66 139.918 11.34C139.598 11 139.438 10.58 139.438 10.08C139.438 9.6 139.598 9.2 139.918 8.88C140.258 8.56 140.678 8.4 141.178 8.4C141.658 8.4 142.068 8.56 142.408 8.88C142.748 9.2 142.918 9.6 142.918 10.08C142.918 10.58 142.748 11 142.408 11.34C142.068 11.66 141.658 11.82 141.178 11.82ZM139.918 30V15.12H142.438V30H139.918ZM152.706 30C151.346 30 150.276 29.67 149.496 29.01C148.716 28.35 148.326 27.16 148.326 25.44V17.25H145.746V15.12H148.326L148.656 11.55H150.846V15.12H155.226V17.25H150.846V25.44C150.846 26.38 151.036 27.02 151.416 27.36C151.796 27.68 152.466 27.84 153.426 27.84H154.986V30H152.706ZM163.377 30.36C162.137 30.36 161.107 30.15 160.287 29.73C159.467 29.31 158.857 28.75 158.457 28.05C158.057 27.35 157.857 26.59 157.857 25.77C157.857 24.25 158.437 23.08 159.597 22.26C160.757 21.44 162.337 21.03 164.337 21.03H168.357V20.85C168.357 19.55 168.017 18.57 167.337 17.91C166.657 17.23 165.747 16.89 164.607 16.89C163.627 16.89 162.777 17.14 162.057 17.64C161.357 18.12 160.917 18.83 160.737 19.77H158.157C158.257 18.69 158.617 17.78 159.237 17.04C159.877 16.3 160.667 15.74 161.607 15.36C162.547 14.96 163.547 14.76 164.607 14.76C166.687 14.76 168.247 15.32 169.287 16.44C170.347 17.54 170.877 19.01 170.877 20.85V30H168.627L168.477 27.33C168.057 28.17 167.437 28.89 166.617 29.49C165.817 30.07 164.737 30.36 163.377 30.36ZM163.767 28.23C164.727 28.23 165.547 27.98 166.227 27.48C166.927 26.98 167.457 26.33 167.817 25.53C168.177 24.73 168.357 23.89 168.357 23.01V22.98H164.547C163.067 22.98 162.017 23.24 161.397 23.76C160.797 24.26 160.497 24.89 160.497 25.65C160.497 26.43 160.777 27.06 161.337 27.54C161.917 28 162.727 28.23 163.767 28.23ZM174.658 30V8.4H177.178V30H174.658Z" fill="#F7931A"/>
<path d="M24 20.8633C23.12 20.8633 22.4 21.6354 22.4 22.5791C22.4 23.5228 23.12 24.2949 24 24.2949C24.88 24.2949 25.6 23.5228 25.6 22.5791C25.6 21.6354 24.88 20.8633 24 20.8633ZM28.8 22.5791C28.8 19.7394 26.648 17.4316 24 17.4316C21.352 17.4316 19.2 19.7394 19.2 22.5791C19.2 24.4836 20.168 26.1394 21.6 27.0316L22.4 25.5389C21.448 24.9383 20.8 23.8488 20.8 22.5791C20.8 20.6831 22.232 19.1475 24 19.1475C25.768 19.1475 27.2 20.6831 27.2 22.5791C27.2 23.8488 26.552 24.9383 25.6 25.5389L26.4 27.0316C27.832 26.1394 28.8 24.4836 28.8 22.5791ZM24 14C19.584 14 16 17.8434 16 22.5791C16 25.7534 17.608 28.5158 19.992 30L20.792 28.5158C18.888 27.3233 17.6 25.1185 17.6 22.5791C17.6 18.7871 20.464 15.7158 24 15.7158C27.536 15.7158 30.4 18.7871 30.4 22.5791C30.4 25.1185 29.112 27.3233 27.2 28.5158L28 30C30.392 28.5158 32 25.7534 32 22.5791C32 17.8434 28.416 14 24 14V14Z" fill="black"/>
</svg>
