<svg width="20" height="20" viewBox="0 0 20 20" fill="none" xmlns="http://www.w3.org/2000/svg">
<path d="M10 8.57909C8.9 8.57909 8 9.54424 8 10.7239C8 11.9035 8.9 12.8686 10 12.8686C11.1 12.8686 12 11.9035 12 10.7239C12 9.54424 11.1 8.57909 10 8.57909ZM16 10.7239C16 7.17426 13.31 4.28954 10 4.28954C6.69 4.28954 4 7.17426 4 10.7239C4 13.1046 5.21 15.1743 7 16.2895L8 14.4236C6.81 13.6729 6 12.311 6 10.7239C6 8.35389 7.79 6.43432 10 6.43432C12.21 6.43432 14 8.35389 14 10.7239C14 12.311 13.19 13.6729 12 14.4236L13 16.2895C14.79 15.1743 16 13.1046 16 10.7239ZM10 0C4.48 0 0 4.80429 0 10.7239C0 14.6917 2.01 18.1448 4.99 20L5.99 18.1448C3.61 16.6542 2 13.8981 2 10.7239C2 5.98391 5.58 2.14477 10 2.14477C14.42 2.14477 18 5.98391 18 10.7239C18 13.8981 16.39 16.6542 14 18.1448L15 20C17.99 18.1448 20 14.6917 20 10.7239C20 4.80429 15.52 0 10 0V0Z" fill="#F7931A"/>
</svg>
